<svg width="336" height="210" viewBox="0 0 336 210" fill="none" xmlns="http://www.w3.org/2000/svg">
<path d="M140.053 57.5461C109.346 16.584 -9.13632 0.932205 1.37243 123.561C16.3724 298.597 85.5163 133.381 206.085 179.202C373.333 228.304 369.111 -40.1126 217.445 57.5461C168.101 89.3189 170.511 88.7095 140.053 57.5461Z" fill="#FFD799"/>
<path fill-rule="evenodd" clip-rule="evenodd" d="M281.715 104.418C281.715 115.316 286.789 120.998 292.2 123.111L292.233 123.301L292.715 128.301L295.365 145.301H308.61L310.715 128.301L311.086 123.301L311.505 121.301C311.919 120.999 312.322 120.666 312.715 120.301C314.822 118.34 316.243 115.939 317.171 113.172C318.513 112.897 320.35 112.03 321.715 109.301C322.715 107.301 322.715 106.301 322.715 105.301C322.715 104.301 321.971 102.932 320.715 102.301C320.399 102.142 320.052 102 319.71 101.876C319.713 101.693 319.715 101.502 319.715 101.301L319.715 100.825C319.717 95.7723 319.718 91.1016 317.879 87.2769C314.974 81.2342 308.839 77.3008 301.463 77.3008C289.273 77.3008 281.715 90.3333 281.715 104.418Z" fill="#F1F1F1"/>
<path fill-rule="evenodd" clip-rule="evenodd" d="M310.974 123.109C310.974 127.622 306.829 132.471 301.715 132.471C296.601 132.471 292.456 127.622 292.456 123.109C292.071 123.109 286.625 125.207 282.483 129.413C279.27 132.676 276.715 137.581 276.715 141.386V164.301H315.604C321.74 164.301 326.715 159.271 326.715 153.067V141.386C326.715 137.573 324.105 132.66 320.832 129.393C316.628 125.197 311.451 123.109 310.974 123.109Z" fill="#66C786"/>
<path d="M301.645 113.987C301.618 114.047 301.551 114.17 301.437 114.335C301.243 114.617 300.991 114.9 300.675 115.164C299.564 116.095 297.984 116.562 295.799 116.307C294.714 116.18 293.948 115.727 293.424 115.036C293.201 114.742 293.037 114.425 292.925 114.107C292.859 113.919 292.825 113.777 292.814 113.706C292.776 113.452 292.5 113.273 292.198 113.304C291.896 113.336 291.681 113.568 291.719 113.821C291.785 114.263 292.009 114.895 292.492 115.532C293.182 116.441 294.222 117.057 295.647 117.223C298.181 117.519 300.104 116.951 301.456 115.819C302.121 115.261 302.508 114.7 302.681 114.306C302.786 114.066 302.639 113.8 302.353 113.712C302.067 113.624 301.75 113.747 301.645 113.987Z" fill="#262626"/>
<path fill-rule="evenodd" clip-rule="evenodd" d="M289.596 104.257C290.841 104.628 291.741 102.546 291.714 101.061C291.71 100.779 291.596 99.4782 290.85 99.3259C290.106 99.1725 289.61 99.7683 289.535 99.874C288.64 101.133 288.235 103.85 289.596 104.257Z" fill="#262626"/>
<path fill-rule="evenodd" clip-rule="evenodd" d="M303.639 100.913C303.583 100.637 303.231 99.3733 302.426 99.3058C301.62 99.2382 301.21 99.8778 301.152 99.9893C300.444 101.325 300.508 104.035 302.002 104.284C303.367 104.511 303.933 102.367 303.639 100.913Z" fill="#262626"/>
<path d="M293.559 105.107C293.44 105.212 293.315 105.301 293.184 105.377C292.672 105.671 292.142 105.725 291.654 105.646C291.583 105.634 291.524 105.621 291.543 105.623C290.782 105.519 290.267 105.599 290.078 105.826C289.338 106.718 289.575 107.663 290.846 108.44C291.514 108.848 292.434 108.991 292.921 108.78C293.159 108.676 293.438 108.782 293.543 109.015C293.649 109.249 293.541 109.522 293.303 109.625C292.498 109.975 291.26 109.782 290.348 109.225C288.62 108.17 288.225 106.594 289.347 105.242C289.808 104.687 290.614 104.562 291.674 104.707C291.749 104.722 291.775 104.728 291.808 104.733C292.097 104.78 292.413 104.748 292.707 104.579C292.783 104.535 292.857 104.482 292.928 104.42C293.121 104.249 293.419 104.264 293.594 104.454C293.768 104.644 293.752 104.936 293.559 105.107Z" fill="#262626"/>
<path fill-rule="evenodd" clip-rule="evenodd" d="M154.498 0.300781H288.931C293.227 0.300781 296.715 3.76183 296.715 8.02213V75.6467C296.715 79.9179 293.227 83.375 288.931 83.375H241.659V115.301L200.255 83.375H154.498C150.198 83.375 146.715 79.9179 146.715 75.6467V8.02213C146.715 3.76183 150.198 0.300781 154.498 0.300781Z" fill="#C0B2D2"/>
<path fill-rule="evenodd" clip-rule="evenodd" d="M159.682 20.3008H25.7459C21.8645 20.3008 18.7148 23.1268 18.7148 26.6138V101.661C18.7148 105.149 21.8645 107.969 25.7459 107.969H68.0844V134.057L105.47 107.969H159.682C163.567 107.969 166.715 105.149 166.715 101.661V26.6138C166.715 23.1268 163.567 20.3008 159.682 20.3008Z" fill="#F1F1F1"/>
<path fill-rule="evenodd" clip-rule="evenodd" d="M277.215 106.301C278.215 105.896 277.215 105.301 276.571 104.801C275.715 103.801 275.215 102.801 275.215 100.301C275.215 98.3008 276.432 96.9583 278.261 96.4929C278.261 96.4929 278.397 96.4833 278.715 96.3008C279.25 95.9935 279.408 95.2391 278.715 94.3834C277.609 93.0194 277.794 89.3008 280.794 89.3008C280.905 89.3008 281.381 88.937 280.745 88.3008C278.715 84.3008 281.632 81.3008 284.715 81.3008C284.715 80.3008 286.715 78.3008 288.715 79.3008C287.864 78.3008 289.715 75.3008 291.715 75.3008C293.048 75.3008 294.048 75.645 294.715 76.3336C295.479 74.3116 296.812 73.3008 298.715 73.3008C300.715 73.3008 302.023 74.135 302.715 75.3008C304.076 77.5975 305.715 76.3336 305.715 76.3336C306.715 74.3663 311.023 73.3008 312.715 77.3008C312.882 77.2832 314.443 76.6647 315.715 77.3008C317.715 78.3008 316.67 80.3274 316.715 80.3008C319.104 79.3008 322.37 82.4466 321.715 85.3008C321.412 86.621 321.715 87.6421 321.715 87.6421C325.704 88.8979 324.368 93.5 324.285 93.562C326.279 94.1819 327.714 96.0708 327.714 98.3008C327.714 99.5593 327.476 100.427 326.715 101.301C328.715 101.301 329.715 103.603 329.715 105.301C329.715 107.301 328.715 109.125 327.714 109.32C327.941 109.622 328.135 109.95 328.29 110.301C328.29 110.301 330.715 111.301 330.715 113.301C330.715 115.301 329.715 116.301 328.715 117.217C326.775 118.995 326.715 119.3 327.715 120.301C329.715 122.301 328.939 126.301 326.715 126.301C325.715 126.301 325.715 127.301 325.715 127.301C325.715 127.301 326.715 127.301 326.715 129.301C326.715 131.301 323.715 132.301 322.715 132.301C319.233 128.133 314.248 124.824 311.065 123.629L310.972 122.58V121.315C314.283 118.394 314.001 118.157 315.261 116.372C315.496 116.039 316.715 113.459 317.095 112.322C317.297 112.434 318.773 111.984 319.64 111.301C320.506 110.617 321.715 108.572 322.06 107.33C322.406 106.088 322.436 103.475 320.895 102.801C319.823 102.301 317.731 102.301 317.731 100.301C317.731 98.3007 316.157 97.079 315.715 97.3027C313 98.4944 308.2 97.5476 308.751 92.3008C308.751 92.3008 308.05 92.8208 306.35 92.8208C304.481 92.8208 302.715 91.3008 302.715 89.3008C300.354 88.8789 297.697 91.193 297.697 93.562C297.697 96.8256 294.228 97.1133 291.282 95.7065C288.517 94.3857 286.804 94.7139 286.08 97.728C285.351 100.76 284.174 101.301 282.736 101.301C282.736 101.301 281.853 106.092 282.999 111.301C284.195 116.74 288.128 120.301 292.315 122.546L292.449 122.58V123.467C289.318 124.604 284.24 128.115 280.715 132.301C279.696 132.301 277.715 131.301 277.715 129.301C277.715 127.301 278.715 126.301 278.715 126.301C276.715 126.301 275.3 124.949 274.865 123.301C274.573 122.193 274.865 120.301 275.715 119.301C274.715 118.301 272.715 117.301 272.715 114.301C272.715 112.73 273.715 111.301 275.215 111.301L274.865 110.301C274.715 108.301 275.549 107.134 277.215 106.301Z" fill="#8B5C1E"/>
<path d="M37.0748 55.3008L33.7148 44.8048H35.1388L36.8188 50.4688C37.0108 51.0981 37.1762 51.6794 37.3148 52.2128C37.4642 52.7461 37.6402 53.3221 37.8428 53.9408H37.9068C38.0988 53.3221 38.2695 52.7461 38.4188 52.2128C38.5682 51.6794 38.7335 51.0981 38.9148 50.4688L40.5948 44.8048H41.9548L38.6268 55.3008H37.0748ZM43.2612 55.3008V47.5248H44.5732V55.3008H43.2612ZM43.9332 45.9248C43.6772 45.9248 43.4586 45.8448 43.2772 45.6848C43.1066 45.5248 43.0212 45.3221 43.0212 45.0768C43.0212 44.8208 43.1066 44.6181 43.2772 44.4688C43.4586 44.3088 43.6772 44.2288 43.9332 44.2288C44.1892 44.2288 44.4026 44.3088 44.5732 44.4688C44.7546 44.6181 44.8452 44.8208 44.8452 45.0768C44.8452 45.3221 44.7546 45.5248 44.5732 45.6848C44.4026 45.8448 44.1892 45.9248 43.9332 45.9248ZM48.5907 55.4928C48.0894 55.4928 47.7321 55.3434 47.5187 55.0448C47.3054 54.7461 47.1987 54.3088 47.1987 53.7328V43.9088H48.5107V53.8288C48.5107 54.0421 48.5481 54.1914 48.6227 54.2768C48.6974 54.3621 48.7827 54.4048 48.8787 54.4048C48.9214 54.4048 48.9587 54.4048 48.9907 54.4048C49.0334 54.4048 49.0921 54.3941 49.1667 54.3728L49.3427 55.3648C49.2574 55.4074 49.1561 55.4394 49.0387 55.4608C48.9214 55.4821 48.7721 55.4928 48.5907 55.4928ZM57.136 55.4928C56.1546 55.4928 55.3706 55.1408 54.784 54.4368C54.208 53.7328 53.92 52.7301 53.92 51.4288C53.92 50.7994 54.0106 50.2341 54.192 49.7328C54.384 49.2208 54.6346 48.7888 54.944 48.4368C55.2533 48.0848 55.6106 47.8128 56.016 47.6208C56.4213 47.4288 56.848 47.3328 57.296 47.3328C57.744 47.3328 58.1333 47.4128 58.464 47.5728C58.7946 47.7328 59.1306 47.9514 59.472 48.2288L59.408 46.9008V43.9088H60.736V55.3008H59.648L59.536 54.3888H59.488C59.1786 54.6874 58.8213 54.9488 58.416 55.1728C58.0213 55.3861 57.5946 55.4928 57.136 55.4928ZM57.424 54.3888C57.7866 54.3888 58.128 54.3034 58.448 54.1328C58.768 53.9514 59.088 53.6794 59.408 53.3168V49.2528C59.0773 48.9541 58.7573 48.7461 58.448 48.6288C58.1493 48.5008 57.84 48.4368 57.52 48.4368C57.2106 48.4368 56.9173 48.5114 56.64 48.6608C56.3733 48.7994 56.1386 49.0021 55.936 49.2688C55.7333 49.5248 55.5733 49.8341 55.456 50.1968C55.3386 50.5594 55.28 50.9648 55.28 51.4128C55.28 52.3514 55.4666 53.0821 55.84 53.6048C56.2133 54.1274 56.7413 54.3888 57.424 54.3888ZM65.627 55.4928C64.795 55.4928 64.187 55.2368 63.803 54.7248C63.4296 54.2128 63.243 53.4554 63.243 52.4528V47.5248H64.571V52.2768C64.571 53.0128 64.683 53.5461 64.907 53.8768C65.1416 54.1968 65.515 54.3568 66.027 54.3568C66.4323 54.3568 66.7896 54.2554 67.099 54.0528C67.4083 53.8394 67.7496 53.5034 68.123 53.0448V47.5248H69.435V55.3008H68.347L68.235 54.0848H68.187C67.8243 54.5114 67.4403 54.8528 67.035 55.1088C66.6403 55.3648 66.171 55.4928 65.627 55.4928ZM75.2612 55.3008V43.9088H76.5732V47.0128L76.5252 48.6128C76.8986 48.2608 77.2879 47.9621 77.6932 47.7168C78.0986 47.4608 78.5732 47.3328 79.1172 47.3328C79.9386 47.3328 80.5359 47.5888 80.9092 48.1008C81.2932 48.6128 81.4852 49.3701 81.4852 50.3728V55.3008H80.1732V50.5488C80.1732 49.8128 80.0559 49.2848 79.8212 48.9648C79.5866 48.6341 79.2132 48.4688 78.7012 48.4688C78.2959 48.4688 77.9386 48.5701 77.6292 48.7728C77.3199 48.9754 76.9679 49.2741 76.5732 49.6688V55.3008H75.2612ZM83.1643 58.7728C82.919 58.7728 82.7003 58.7514 82.5083 58.7088C82.3163 58.6661 82.151 58.6181 82.0123 58.5648L82.2843 57.5728C82.3803 57.6048 82.4923 57.6314 82.6203 57.6528C82.7483 57.6848 82.8817 57.7008 83.0203 57.7008C83.4043 57.7008 83.6603 57.5674 83.7883 57.3008C83.9163 57.0341 83.9803 56.6608 83.9803 56.1808V47.5248H85.2923V56.1808C85.2923 56.9701 85.1323 57.5994 84.8123 58.0688C84.4923 58.5381 83.943 58.7728 83.1643 58.7728ZM84.6523 45.9248C84.3963 45.9248 84.1777 45.8448 83.9963 45.6848C83.8257 45.5248 83.7403 45.3221 83.7403 45.0768C83.7403 44.8208 83.8257 44.6181 83.9963 44.4688C84.1777 44.3088 84.3963 44.2288 84.6523 44.2288C84.8977 44.2288 85.1057 44.3088 85.2763 44.4688C85.4577 44.6181 85.5483 44.8208 85.5483 45.0768C85.5483 45.3221 85.4577 45.5248 85.2763 45.6848C85.1057 45.8448 84.8977 45.9248 84.6523 45.9248ZM91.0695 55.4928C90.5468 55.4928 90.0561 55.4021 89.5975 55.2208C89.1495 55.0288 88.7548 54.7621 88.4135 54.4208C88.0828 54.0688 87.8215 53.6421 87.6295 53.1408C87.4375 52.6394 87.3415 52.0688 87.3415 51.4288C87.3415 50.7888 87.4375 50.2181 87.6295 49.7168C87.8321 49.2048 88.0935 48.7728 88.4135 48.4208C88.7441 48.0688 89.1175 47.8021 89.5335 47.6208C89.9495 47.4288 90.3815 47.3328 90.8295 47.3328C91.3201 47.3328 91.7575 47.4181 92.1415 47.5888C92.5361 47.7594 92.8615 48.0048 93.1175 48.3248C93.3841 48.6448 93.5868 49.0288 93.7255 49.4768C93.8641 49.9248 93.9335 50.4261 93.9335 50.9808C93.9335 51.1194 93.9281 51.2581 93.9175 51.3968C93.9175 51.5248 93.9068 51.6368 93.8855 51.7328H88.6375C88.6908 52.5648 88.9468 53.2261 89.4055 53.7168C89.8748 54.1968 90.4828 54.4368 91.2295 54.4368C91.6028 54.4368 91.9441 54.3834 92.2535 54.2768C92.5735 54.1594 92.8775 54.0101 93.1655 53.8288L93.6295 54.6928C93.2881 54.9061 92.9095 55.0928 92.4935 55.2528C92.0775 55.4128 91.6028 55.4928 91.0695 55.4928ZM88.6215 50.7888H92.7815C92.7815 49.9994 92.6108 49.4021 92.2695 48.9968C91.9388 48.5808 91.4695 48.3728 90.8615 48.3728C90.5841 48.3728 90.3175 48.4261 90.0615 48.5328C89.8161 48.6394 89.5921 48.7994 89.3895 49.0128C89.1868 49.2154 89.0161 49.4661 88.8775 49.7648C88.7495 50.0634 88.6641 50.4048 88.6215 50.7888ZM97.247 55.4928C96.7456 55.4928 96.3883 55.3434 96.175 55.0448C95.9616 54.7461 95.855 54.3088 95.855 53.7328V43.9088H97.167V53.8288C97.167 54.0421 97.2043 54.1914 97.279 54.2768C97.3536 54.3621 97.439 54.4048 97.535 54.4048C97.5776 54.4048 97.615 54.4048 97.647 54.4048C97.6896 54.4048 97.7483 54.3941 97.823 54.3728L97.999 55.3648C97.9136 55.4074 97.8123 55.4394 97.695 55.4608C97.5776 55.4821 97.4283 55.4928 97.247 55.4928ZM99.9331 58.5808V47.5248H101.021L101.133 48.4208H101.181C101.533 48.1221 101.917 47.8661 102.333 47.6528C102.76 47.4394 103.202 47.3328 103.661 47.3328C104.162 47.3328 104.605 47.4288 104.989 47.6208C105.373 47.8021 105.693 48.0688 105.949 48.4208C106.205 48.7621 106.397 49.1781 106.525 49.6688C106.664 50.1488 106.733 50.6928 106.733 51.3008C106.733 51.9621 106.642 52.5541 106.461 53.0768C106.28 53.5888 106.034 54.0261 105.725 54.3888C105.416 54.7514 105.058 55.0288 104.653 55.2208C104.248 55.4021 103.821 55.4928 103.373 55.4928C103.01 55.4928 102.648 55.4128 102.285 55.2528C101.933 55.0928 101.576 54.8741 101.213 54.5968L101.245 55.9568V58.5808H99.9331ZM103.149 54.3888C103.469 54.3888 103.762 54.3194 104.029 54.1808C104.306 54.0314 104.541 53.8288 104.733 53.5728C104.936 53.3061 105.09 52.9808 105.197 52.5968C105.314 52.2128 105.373 51.7808 105.373 51.3008C105.373 50.8741 105.336 50.4848 105.261 50.1328C105.186 49.7808 105.064 49.4821 104.893 49.2368C104.733 48.9808 104.52 48.7834 104.253 48.6448C103.997 48.5061 103.688 48.4368 103.325 48.4368C102.994 48.4368 102.658 48.5274 102.317 48.7088C101.986 48.8901 101.629 49.1514 101.245 49.4928V53.5728C101.597 53.8714 101.938 54.0848 102.269 54.2128C102.6 54.3301 102.893 54.3888 103.149 54.3888ZM111.96 55.4928C111.437 55.4928 110.947 55.4021 110.488 55.2208C110.04 55.0288 109.645 54.7621 109.304 54.4208C108.973 54.0688 108.712 53.6421 108.52 53.1408C108.328 52.6394 108.232 52.0688 108.232 51.4288C108.232 50.7888 108.328 50.2181 108.52 49.7168C108.723 49.2048 108.984 48.7728 109.304 48.4208C109.635 48.0688 110.008 47.8021 110.424 47.6208C110.84 47.4288 111.272 47.3328 111.72 47.3328C112.211 47.3328 112.648 47.4181 113.032 47.5888C113.427 47.7594 113.752 48.0048 114.008 48.3248C114.275 48.6448 114.477 49.0288 114.616 49.4768C114.755 49.9248 114.824 50.4261 114.824 50.9808C114.824 51.1194 114.819 51.2581 114.808 51.3968C114.808 51.5248 114.797 51.6368 114.776 51.7328H109.528C109.581 52.5648 109.837 53.2261 110.296 53.7168C110.765 54.1968 111.373 54.4368 112.12 54.4368C112.493 54.4368 112.835 54.3834 113.144 54.2768C113.464 54.1594 113.768 54.0101 114.056 53.8288L114.52 54.6928C114.179 54.9061 113.8 55.0928 113.384 55.2528C112.968 55.4128 112.493 55.4928 111.96 55.4928ZM109.512 50.7888H113.672C113.672 49.9994 113.501 49.4021 113.16 48.9968C112.829 48.5808 112.36 48.3728 111.752 48.3728C111.475 48.3728 111.208 48.4261 110.952 48.5328C110.707 48.6394 110.483 48.7994 110.28 49.0128C110.077 49.2154 109.907 49.4661 109.768 49.7648C109.64 50.0634 109.555 50.4048 109.512 50.7888ZM122.973 55.4928C122.493 55.4928 122.034 55.4021 121.597 55.2208C121.17 55.0394 120.791 54.7781 120.461 54.4368C120.13 54.0848 119.863 53.6581 119.661 53.1568C119.469 52.6448 119.373 52.0688 119.373 51.4288C119.373 50.7781 119.469 50.2021 119.661 49.7008C119.863 49.1888 120.13 48.7568 120.461 48.4048C120.791 48.0528 121.17 47.7861 121.597 47.6048C122.034 47.4234 122.493 47.3328 122.973 47.3328C123.453 47.3328 123.906 47.4234 124.333 47.6048C124.77 47.7861 125.154 48.0528 125.485 48.4048C125.815 48.7568 126.077 49.1888 126.269 49.7008C126.471 50.2021 126.573 50.7781 126.573 51.4288C126.573 52.0688 126.471 52.6448 126.269 53.1568C126.077 53.6581 125.815 54.0848 125.485 54.4368C125.154 54.7781 124.77 55.0394 124.333 55.2208C123.906 55.4021 123.453 55.4928 122.973 55.4928ZM122.973 54.4048C123.303 54.4048 123.607 54.3354 123.885 54.1968C124.162 54.0474 124.397 53.8448 124.589 53.5888C124.791 53.3221 124.946 53.0074 125.053 52.6448C125.159 52.2821 125.213 51.8768 125.213 51.4288C125.213 50.9808 125.159 50.5754 125.053 50.2128C124.946 49.8394 124.791 49.5194 124.589 49.2528C124.397 48.9861 124.162 48.7834 123.885 48.6448C123.607 48.4954 123.303 48.4208 122.973 48.4208C122.642 48.4208 122.338 48.4954 122.061 48.6448C121.783 48.7834 121.543 48.9861 121.341 49.2528C121.149 49.5194 120.999 49.8394 120.893 50.2128C120.786 50.5754 120.733 50.9808 120.733 51.4288C120.733 51.8768 120.786 52.2821 120.893 52.6448C120.999 53.0074 121.149 53.3221 121.341 53.5888C121.543 53.8448 121.783 54.0474 122.061 54.1968C122.338 54.3354 122.642 54.4048 122.973 54.4048ZM130.653 55.4928C130.098 55.4928 129.57 55.3914 129.069 55.1888C128.567 54.9861 128.13 54.7301 127.757 54.4208L128.413 53.5408C128.754 53.8181 129.101 54.0421 129.453 54.2128C129.815 54.3834 130.231 54.4688 130.701 54.4688C131.213 54.4688 131.597 54.3514 131.853 54.1168C132.109 53.8821 132.237 53.5941 132.237 53.2528C132.237 53.0501 132.183 52.8741 132.077 52.7248C131.97 52.5754 131.831 52.4474 131.661 52.3408C131.501 52.2234 131.314 52.1221 131.101 52.0368C130.887 51.9514 130.674 51.8661 130.461 51.7808C130.183 51.6848 129.906 51.5781 129.629 51.4608C129.351 51.3328 129.101 51.1834 128.877 51.0128C128.663 50.8314 128.487 50.6234 128.349 50.3888C128.21 50.1541 128.141 49.8714 128.141 49.5408C128.141 49.2314 128.199 48.9434 128.317 48.6768C128.445 48.3994 128.621 48.1648 128.845 47.9728C129.079 47.7701 129.362 47.6154 129.693 47.5088C130.023 47.3914 130.397 47.3328 130.813 47.3328C131.303 47.3328 131.751 47.4181 132.157 47.5888C132.573 47.7594 132.93 47.9674 133.229 48.2128L132.605 49.0448C132.338 48.8421 132.061 48.6768 131.773 48.5488C131.485 48.4208 131.17 48.3568 130.829 48.3568C130.338 48.3568 129.975 48.4688 129.741 48.6928C129.517 48.9168 129.405 49.1781 129.405 49.4768C129.405 49.6581 129.453 49.8181 129.549 49.9568C129.645 50.0848 129.773 50.2021 129.933 50.3088C130.093 50.4048 130.274 50.4954 130.477 50.5808C130.69 50.6554 130.909 50.7354 131.133 50.8208C131.41 50.9274 131.687 51.0394 131.965 51.1568C132.253 51.2741 132.509 51.4234 132.733 51.6048C132.957 51.7754 133.138 51.9888 133.277 52.2448C133.426 52.5008 133.501 52.8101 133.501 53.1728C133.501 53.4928 133.437 53.7914 133.309 54.0688C133.191 54.3461 133.01 54.5914 132.765 54.8048C132.53 55.0181 132.231 55.1834 131.869 55.3008C131.517 55.4288 131.111 55.4928 130.653 55.4928ZM137.356 55.4928C136.801 55.4928 136.273 55.3914 135.772 55.1888C135.27 54.9861 134.833 54.7301 134.46 54.4208L135.116 53.5408C135.457 53.8181 135.804 54.0421 136.156 54.2128C136.518 54.3834 136.934 54.4688 137.404 54.4688C137.916 54.4688 138.3 54.3514 138.556 54.1168C138.812 53.8821 138.94 53.5941 138.94 53.2528C138.94 53.0501 138.886 52.8741 138.78 52.7248C138.673 52.5754 138.534 52.4474 138.364 52.3408C138.204 52.2234 138.017 52.1221 137.804 52.0368C137.59 51.9514 137.377 51.8661 137.164 51.7808C136.886 51.6848 136.609 51.5781 136.332 51.4608C136.054 51.3328 135.804 51.1834 135.58 51.0128C135.366 50.8314 135.19 50.6234 135.052 50.3888C134.913 50.1541 134.844 49.8714 134.844 49.5408C134.844 49.2314 134.902 48.9434 135.02 48.6768C135.148 48.3994 135.324 48.1648 135.548 47.9728C135.782 47.7701 136.065 47.6154 136.396 47.5088C136.726 47.3914 137.1 47.3328 137.516 47.3328C138.006 47.3328 138.454 47.4181 138.86 47.5888C139.276 47.7594 139.633 47.9674 139.932 48.2128L139.308 49.0448C139.041 48.8421 138.764 48.6768 138.476 48.5488C138.188 48.4208 137.873 48.3568 137.532 48.3568C137.041 48.3568 136.678 48.4688 136.444 48.6928C136.22 48.9168 136.108 49.1781 136.108 49.4768C136.108 49.6581 136.156 49.8181 136.252 49.9568C136.348 50.0848 136.476 50.2021 136.636 50.3088C136.796 50.4048 136.977 50.4954 137.18 50.5808C137.393 50.6554 137.612 50.7354 137.836 50.8208C138.113 50.9274 138.39 51.0394 138.668 51.1568C138.956 51.2741 139.212 51.4234 139.436 51.6048C139.66 51.7754 139.841 51.9888 139.98 52.2448C140.129 52.5008 140.204 52.8101 140.204 53.1728C140.204 53.4928 140.14 53.7914 140.012 54.0688C139.894 54.3461 139.713 54.5914 139.468 54.8048C139.233 55.0181 138.934 55.1834 138.572 55.3008C138.22 55.4288 137.814 55.4928 137.356 55.4928ZM147.022 55.4928C146.371 55.4928 145.827 55.3008 145.39 54.9168C144.963 54.5328 144.75 53.9888 144.75 53.2848C144.75 52.4314 145.129 51.7808 145.886 51.3328C146.643 50.8741 147.854 50.5541 149.518 50.3728C149.518 50.1274 149.491 49.8874 149.438 49.6528C149.395 49.4181 149.315 49.2101 149.198 49.0288C149.081 48.8474 148.915 48.7034 148.702 48.5968C148.499 48.4794 148.238 48.4208 147.918 48.4208C147.47 48.4208 147.049 48.5061 146.654 48.6768C146.259 48.8474 145.907 49.0394 145.598 49.2528L145.086 48.3408C145.449 48.1061 145.891 47.8821 146.414 47.6688C146.937 47.4448 147.513 47.3328 148.142 47.3328C149.091 47.3328 149.779 47.6261 150.206 48.2128C150.633 48.7888 150.846 49.5621 150.846 50.5328V55.3008H149.758L149.646 54.3728H149.598C149.225 54.6821 148.825 54.9488 148.398 55.1728C147.971 55.3861 147.513 55.4928 147.022 55.4928ZM147.406 54.4368C147.779 54.4368 148.131 54.3514 148.462 54.1808C148.793 53.9994 149.145 53.7381 149.518 53.3968V51.2368C148.867 51.3221 148.318 51.4234 147.87 51.5408C147.433 51.6581 147.075 51.7968 146.798 51.9568C146.531 52.1168 146.334 52.3034 146.206 52.5168C146.089 52.7194 146.03 52.9434 146.03 53.1888C146.03 53.6368 146.163 53.9568 146.43 54.1488C146.697 54.3408 147.022 54.4368 147.406 54.4368ZM148.11 46.4368C147.566 46.4368 147.134 46.2874 146.814 45.9888C146.505 45.6901 146.35 45.3114 146.35 44.8528C146.35 44.4048 146.505 44.0314 146.814 43.7328C147.134 43.4341 147.566 43.2848 148.11 43.2848C148.654 43.2848 149.081 43.4341 149.39 43.7328C149.71 44.0314 149.87 44.4048 149.87 44.8528C149.87 45.3114 149.71 45.6901 149.39 45.9888C149.081 46.2874 148.654 46.4368 148.11 46.4368ZM148.11 45.8448C148.366 45.8448 148.579 45.7594 148.75 45.5888C148.931 45.4074 149.022 45.1621 149.022 44.8528C149.022 44.5541 148.931 44.3194 148.75 44.1488C148.579 43.9674 148.366 43.8768 148.11 43.8768C147.854 43.8768 147.635 43.9674 147.454 44.1488C147.283 44.3194 147.198 44.5541 147.198 44.8528C147.198 45.1621 147.283 45.4074 147.454 45.5888C147.635 45.7594 147.854 45.8448 148.11 45.8448ZM37.6508 80.8848C37.1708 80.8848 36.7335 80.8368 36.3388 80.7408C35.9442 80.6554 35.6028 80.5221 35.3148 80.3408C35.0375 80.1594 34.8188 79.9408 34.6588 79.6848C34.5095 79.4288 34.4348 79.1301 34.4348 78.7888C34.4348 78.4581 34.5362 78.1434 34.7388 77.8448C34.9415 77.5461 35.2188 77.2741 35.5708 77.0288V76.9648C35.3788 76.8474 35.2135 76.6874 35.0748 76.4848C34.9468 76.2714 34.8828 76.0101 34.8828 75.7008C34.8828 75.3701 34.9735 75.0821 35.1548 74.8368C35.3362 74.5914 35.5282 74.3994 35.7308 74.2608V74.1968C35.4748 73.9834 35.2402 73.7008 35.0268 73.3488C34.8242 72.9861 34.7228 72.5701 34.7228 72.1008C34.7228 71.6741 34.7975 71.2901 34.9468 70.9488C35.1068 70.6074 35.3202 70.3194 35.5868 70.0848C35.8535 69.8394 36.1628 69.6528 36.5148 69.5248C36.8775 69.3968 37.2562 69.3328 37.6508 69.3328C37.8642 69.3328 38.0615 69.3541 38.2428 69.3968C38.4348 69.4288 38.6055 69.4714 38.7548 69.5248H41.4588V70.5328H39.8588C40.0402 70.7141 40.1895 70.9434 40.3068 71.2208C40.4348 71.4981 40.4988 71.8021 40.4988 72.1328C40.4988 72.5488 40.4242 72.9274 40.2748 73.2688C40.1255 73.5994 39.9228 73.8821 39.6668 74.1168C39.4108 74.3408 39.1068 74.5168 38.7548 74.6448C38.4135 74.7728 38.0455 74.8368 37.6508 74.8368C37.4588 74.8368 37.2615 74.8154 37.0588 74.7728C36.8562 74.7194 36.6642 74.6501 36.4828 74.5648C36.3442 74.6821 36.2268 74.8154 36.1308 74.9648C36.0348 75.1034 35.9868 75.2794 35.9868 75.4928C35.9868 75.7381 36.0828 75.9408 36.2748 76.1008C36.4668 76.2608 36.8295 76.3408 37.3628 76.3408H38.8668C39.7735 76.3408 40.4508 76.4901 40.8988 76.7888C41.3575 77.0768 41.5868 77.5461 41.5868 78.1968C41.5868 78.5594 41.4962 78.9008 41.3148 79.2208C41.1335 79.5514 40.8722 79.8394 40.5308 80.0848C40.1895 80.3301 39.7735 80.5221 39.2828 80.6608C38.8028 80.8101 38.2588 80.8848 37.6508 80.8848ZM37.6508 73.9568C37.8748 73.9568 38.0828 73.9141 38.2748 73.8288C38.4775 73.7434 38.6535 73.6208 38.8028 73.4608C38.9628 73.3008 39.0855 73.1088 39.1708 72.8848C39.2562 72.6501 39.2988 72.3888 39.2988 72.1008C39.2988 71.5248 39.1388 71.0821 38.8188 70.7728C38.4988 70.4528 38.1095 70.2928 37.6508 70.2928C37.1922 70.2928 36.8028 70.4528 36.4828 70.7728C36.1628 71.0821 36.0028 71.5248 36.0028 72.1008C36.0028 72.3888 36.0455 72.6501 36.1308 72.8848C36.2162 73.1088 36.3335 73.3008 36.4828 73.4608C36.6428 73.6208 36.8188 73.7434 37.0108 73.8288C37.2135 73.9141 37.4268 73.9568 37.6508 73.9568ZM37.8428 79.9728C38.2162 79.9728 38.5522 79.9248 38.8508 79.8288C39.1602 79.7434 39.4215 79.6261 39.6348 79.4768C39.8482 79.3381 40.0135 79.1728 40.1308 78.9808C40.2482 78.7888 40.3068 78.5914 40.3068 78.3888C40.3068 78.0261 40.1735 77.7754 39.9068 77.6368C39.6402 77.4981 39.2508 77.4288 38.7388 77.4288H37.3948C37.2455 77.4288 37.0802 77.4181 36.8988 77.3968C36.7282 77.3861 36.5575 77.3541 36.3868 77.3008C36.1095 77.5034 35.9068 77.7168 35.7788 77.9408C35.6508 78.1648 35.5868 78.3888 35.5868 78.6128C35.5868 79.0288 35.7842 79.3594 36.1788 79.6048C36.5842 79.8501 37.1388 79.9728 37.8428 79.9728ZM42.8831 80.7728C42.6378 80.7728 42.4191 80.7514 42.2271 80.7088C42.0351 80.6661 41.8698 80.6181 41.7311 80.5648L42.0031 79.5728C42.0991 79.6048 42.2111 79.6314 42.3391 79.6528C42.4671 79.6848 42.6004 79.7008 42.7391 79.7008C43.1231 79.7008 43.3791 79.5674 43.5071 79.3008C43.6351 79.0341 43.6991 78.6608 43.6991 78.1808V69.5248H45.0111V78.1808C45.0111 78.9701 44.8511 79.5994 44.5311 80.0688C44.2111 80.5381 43.6618 80.7728 42.8831 80.7728ZM44.3711 67.9248C44.1151 67.9248 43.8964 67.8448 43.7151 67.6848C43.5444 67.5248 43.4591 67.3221 43.4591 67.0768C43.4591 66.8208 43.5444 66.6181 43.7151 66.4688C43.8964 66.3088 44.1151 66.2288 44.3711 66.2288C44.6164 66.2288 44.8244 66.3088 44.9951 66.4688C45.1764 66.6181 45.2671 66.8208 45.2671 67.0768C45.2671 67.3221 45.1764 67.5248 44.9951 67.6848C44.8244 67.8448 44.6164 67.9248 44.3711 67.9248ZM50.6602 77.4928C49.8176 77.4928 49.0762 77.2314 48.4362 76.7088L47.6522 77.6688L47.0602 77.2048L47.9242 76.1648C47.6576 75.8234 47.4442 75.4288 47.2842 74.9808C47.1349 74.5221 47.0602 74.0048 47.0602 73.4288C47.0602 72.7781 47.1562 72.2021 47.3482 71.7008C47.5509 71.1888 47.8176 70.7568 48.1482 70.4048C48.4789 70.0528 48.8576 69.7861 49.2842 69.6048C49.7216 69.4234 50.1802 69.3328 50.6602 69.3328C51.0656 69.3328 51.4602 69.4021 51.8442 69.5408C52.2282 69.6688 52.5749 69.8661 52.8842 70.1328L53.6842 69.1568L54.2602 69.6208L53.3962 70.6608C53.6629 71.0021 53.8709 71.4074 54.0202 71.8768C54.1802 72.3354 54.2602 72.8528 54.2602 73.4288C54.2602 74.0688 54.1589 74.6448 53.9562 75.1568C53.7642 75.6581 53.5029 76.0848 53.1722 76.4368C52.8416 76.7781 52.4576 77.0394 52.0202 77.2208C51.5936 77.4021 51.1402 77.4928 50.6602 77.4928ZM48.3562 73.3648C48.3562 74.0794 48.4789 74.6821 48.7242 75.1728L52.1482 71.0288C51.7536 70.6021 51.2576 70.3888 50.6602 70.3888C50.3296 70.3888 50.0202 70.4634 49.7322 70.6128C49.4549 70.7514 49.2149 70.9541 49.0122 71.2208C48.8096 71.4768 48.6496 71.7914 48.5322 72.1648C48.4149 72.5274 48.3562 72.9274 48.3562 73.3648ZM50.6602 76.4368C50.9909 76.4368 51.2949 76.3674 51.5722 76.2288C51.8602 76.0794 52.1056 75.8768 52.3082 75.6208C52.5216 75.3541 52.6816 75.0394 52.7882 74.6768C52.9056 74.3141 52.9642 73.9141 52.9642 73.4768C52.9642 72.7621 52.8362 72.1541 52.5802 71.6528L49.1722 75.8128C49.5882 76.2288 50.0842 76.4368 50.6602 76.4368ZM56.3081 77.3008V69.5248H57.3961L57.5081 70.9328H57.5561C57.8228 70.4421 58.1428 70.0528 58.5161 69.7648C58.9001 69.4768 59.3161 69.3328 59.7641 69.3328C60.0734 69.3328 60.3508 69.3861 60.5961 69.4928L60.3401 70.6448C60.2121 70.6021 60.0948 70.5701 59.9881 70.5488C59.8814 70.5274 59.7481 70.5168 59.5881 70.5168C59.2574 70.5168 58.9108 70.6501 58.5481 70.9168C58.1961 71.1834 57.8868 71.6474 57.6201 72.3088V77.3008H56.3081ZM64.8507 77.4928C64.3281 77.4928 63.8374 77.4021 63.3787 77.2208C62.9307 77.0288 62.5361 76.7621 62.1947 76.4208C61.8641 76.0688 61.6027 75.6421 61.4107 75.1408C61.2187 74.6394 61.1227 74.0688 61.1227 73.4288C61.1227 72.7888 61.2187 72.2181 61.4107 71.7168C61.6134 71.2048 61.8747 70.7728 62.1947 70.4208C62.5254 70.0688 62.8987 69.8021 63.3147 69.6208C63.7307 69.4288 64.1627 69.3328 64.6107 69.3328C65.1014 69.3328 65.5387 69.4181 65.9227 69.5888C66.3174 69.7594 66.6427 70.0048 66.8987 70.3248C67.1654 70.6448 67.3681 71.0288 67.5067 71.4768C67.6454 71.9248 67.7147 72.4261 67.7147 72.9808C67.7147 73.1194 67.7094 73.2581 67.6987 73.3968C67.6987 73.5248 67.6881 73.6368 67.6667 73.7328H62.4187C62.4721 74.5648 62.7281 75.2261 63.1867 75.7168C63.6561 76.1968 64.2641 76.4368 65.0107 76.4368C65.3841 76.4368 65.7254 76.3834 66.0347 76.2768C66.3547 76.1594 66.6587 76.0101 66.9467 75.8288L67.4107 76.6928C67.0694 76.9061 66.6907 77.0928 66.2747 77.2528C65.8587 77.4128 65.3841 77.4928 64.8507 77.4928ZM62.4027 72.7888H66.5627C66.5627 71.9994 66.3921 71.4021 66.0507 70.9968C65.7201 70.5808 65.2507 70.3728 64.6427 70.3728C64.3654 70.3728 64.0987 70.4261 63.8427 70.5328C63.5974 70.6394 63.3734 70.7994 63.1707 71.0128C62.9681 71.2154 62.7974 71.4661 62.6587 71.7648C62.5307 72.0634 62.4454 72.4048 62.4027 72.7888ZM72.9673 77.3008V66.8048H74.3433L78.1353 73.3968L79.2713 75.5728H79.3353C79.3033 75.0394 79.266 74.4901 79.2233 73.9248C79.1913 73.3488 79.1753 72.7834 79.1753 72.2288V66.8048H80.4393V77.3008H79.0633L75.2553 70.6928L74.1193 68.5328H74.0553C74.098 69.0661 74.1353 69.6101 74.1673 70.1648C74.21 70.7088 74.2313 71.2581 74.2313 71.8128V77.3008H72.9673ZM85.1347 71.4288L84.6387 73.0288H87.7907L87.2947 71.4288C87.1027 70.8421 86.9214 70.2608 86.7507 69.6848C86.5801 69.0981 86.4094 68.5008 86.2387 67.8928H86.1747C86.0147 68.5008 85.8494 69.0981 85.6787 69.6848C85.5081 70.2608 85.3267 70.8421 85.1347 71.4288ZM81.9347 77.3008L85.4867 66.8048H86.9907L90.5427 77.3008H89.1187L88.1267 74.1008H84.3027L83.2947 77.3008H81.9347ZM93.7311 77.3008L90.3711 66.8048H91.7951L93.4751 72.4688C93.6671 73.0981 93.8324 73.6794 93.9711 74.2128C94.1204 74.7461 94.2964 75.3221 94.4991 75.9408H94.5631C94.7551 75.3221 94.9258 74.7461 95.0751 74.2128C95.2244 73.6794 95.3898 73.0981 95.5711 72.4688L97.2511 66.8048H98.6111L95.2831 77.3008H93.7311ZM106.561 77.4928C106.198 77.4928 105.819 77.4074 105.425 77.2368C105.041 77.0554 104.678 76.8101 104.337 76.5008H104.289L104.177 77.3008H103.121V65.9088H104.433V69.0128L104.401 70.4208C104.753 70.1114 105.137 69.8554 105.553 69.6528C105.969 69.4394 106.395 69.3328 106.833 69.3328C107.334 69.3328 107.777 69.4288 108.161 69.6208C108.545 69.8021 108.865 70.0688 109.121 70.4208C109.387 70.7621 109.585 71.1781 109.713 71.6688C109.851 72.1488 109.921 72.6874 109.921 73.2848C109.921 73.9461 109.83 74.5381 109.649 75.0608C109.467 75.5834 109.222 76.0261 108.913 76.3888C108.603 76.7514 108.246 77.0288 107.841 77.2208C107.435 77.4021 107.009 77.4928 106.561 77.4928ZM106.337 76.3888C106.657 76.3888 106.95 76.3194 107.217 76.1808C107.494 76.0314 107.729 75.8288 107.921 75.5728C108.123 75.3061 108.278 74.9808 108.385 74.5968C108.502 74.2128 108.561 73.7808 108.561 73.3008C108.561 72.8741 108.523 72.4848 108.449 72.1328C108.374 71.7808 108.251 71.4821 108.081 71.2368C107.921 70.9808 107.707 70.7834 107.441 70.6448C107.185 70.5061 106.875 70.4368 106.513 70.4368C105.883 70.4368 105.19 70.7888 104.433 71.4928V75.5728C104.774 75.8714 105.11 76.0848 105.441 76.2128C105.782 76.3301 106.081 76.3888 106.337 76.3888ZM115.116 77.4928C114.594 77.4928 114.103 77.4021 113.644 77.2208C113.196 77.0288 112.802 76.7621 112.46 76.4208C112.13 76.0688 111.868 75.6421 111.676 75.1408C111.484 74.6394 111.388 74.0688 111.388 73.4288C111.388 72.7888 111.484 72.2181 111.676 71.7168C111.879 71.2048 112.14 70.7728 112.46 70.4208C112.791 70.0688 113.164 69.8021 113.58 69.6208C113.996 69.4288 114.428 69.3328 114.876 69.3328C115.367 69.3328 115.804 69.4181 116.188 69.5888C116.583 69.7594 116.908 70.0048 117.164 70.3248C117.431 70.6448 117.634 71.0288 117.772 71.4768C117.911 71.9248 117.98 72.4261 117.98 72.9808C117.98 73.1194 117.975 73.2581 117.964 73.3968C117.964 73.5248 117.954 73.6368 117.932 73.7328H112.684C112.738 74.5648 112.994 75.2261 113.452 75.7168C113.922 76.1968 114.53 76.4368 115.276 76.4368C115.65 76.4368 115.991 76.3834 116.3 76.2768C116.62 76.1594 116.924 76.0101 117.212 75.8288L117.676 76.6928C117.335 76.9061 116.956 77.0928 116.54 77.2528C116.124 77.4128 115.65 77.4928 115.116 77.4928ZM112.668 72.7888H116.828C116.828 71.9994 116.658 71.4021 116.316 70.9968C115.986 70.5808 115.516 70.3728 114.908 70.3728C114.631 70.3728 114.364 70.4261 114.108 70.5328C113.863 70.6394 113.639 70.7994 113.436 71.0128C113.234 71.2154 113.063 71.4661 112.924 71.7648C112.796 72.0634 112.711 72.4048 112.668 72.7888ZM122.558 77.4928C121.577 77.4928 120.793 77.1408 120.206 76.4368C119.63 75.7328 119.342 74.7301 119.342 73.4288C119.342 72.7994 119.433 72.2341 119.614 71.7328C119.806 71.2208 120.057 70.7888 120.366 70.4368C120.675 70.0848 121.033 69.8128 121.438 69.6208C121.843 69.4288 122.27 69.3328 122.718 69.3328C123.166 69.3328 123.555 69.4128 123.886 69.5728C124.217 69.7328 124.553 69.9514 124.894 70.2288L124.83 68.9008V65.9088H126.158V77.3008H125.07L124.958 76.3888H124.91C124.601 76.6874 124.243 76.9488 123.838 77.1728C123.443 77.3861 123.017 77.4928 122.558 77.4928ZM122.846 76.3888C123.209 76.3888 123.55 76.3034 123.87 76.1328C124.19 75.9514 124.51 75.6794 124.83 75.3168V71.2528C124.499 70.9541 124.179 70.7461 123.87 70.6288C123.571 70.5008 123.262 70.4368 122.942 70.4368C122.633 70.4368 122.339 70.5114 122.062 70.6608C121.795 70.7994 121.561 71.0021 121.358 71.2688C121.155 71.5248 120.995 71.8341 120.878 72.1968C120.761 72.5594 120.702 72.9648 120.702 73.4128C120.702 74.3514 120.889 75.0821 121.262 75.6048C121.635 76.1274 122.163 76.3888 122.846 76.3888ZM128.777 77.3008V69.5248H129.865L129.977 70.9328H130.025C130.292 70.4421 130.612 70.0528 130.985 69.7648C131.369 69.4768 131.785 69.3328 132.233 69.3328C132.542 69.3328 132.82 69.3861 133.065 69.4928L132.809 70.6448C132.681 70.6021 132.564 70.5701 132.457 70.5488C132.35 70.5274 132.217 70.5168 132.057 70.5168C131.726 70.5168 131.38 70.6501 131.017 70.9168C130.665 71.1834 130.356 71.6474 130.089 72.3088V77.3008H128.777ZM137.319 77.4928C136.797 77.4928 136.306 77.4021 135.847 77.2208C135.399 77.0288 135.005 76.7621 134.663 76.4208C134.333 76.0688 134.071 75.6421 133.879 75.1408C133.687 74.6394 133.591 74.0688 133.591 73.4288C133.591 72.7888 133.687 72.2181 133.879 71.7168C134.082 71.2048 134.343 70.7728 134.663 70.4208C134.994 70.0688 135.367 69.8021 135.783 69.6208C136.199 69.4288 136.631 69.3328 137.079 69.3328C137.57 69.3328 138.007 69.4181 138.391 69.5888C138.786 69.7594 139.111 70.0048 139.367 70.3248C139.634 70.6448 139.837 71.0288 139.975 71.4768C140.114 71.9248 140.183 72.4261 140.183 72.9808C140.183 73.1194 140.178 73.2581 140.167 73.3968C140.167 73.5248 140.157 73.6368 140.135 73.7328H134.887C134.941 74.5648 135.197 75.2261 135.655 75.7168C136.125 76.1968 136.733 76.4368 137.479 76.4368C137.853 76.4368 138.194 76.3834 138.503 76.2768C138.823 76.1594 139.127 76.0101 139.415 75.8288L139.879 76.6928C139.538 76.9061 139.159 77.0928 138.743 77.2528C138.327 77.4128 137.853 77.4928 137.319 77.4928ZM134.871 72.7888H139.031C139.031 71.9994 138.861 71.4021 138.519 70.9968C138.189 70.5808 137.719 70.3728 137.111 70.3728C136.834 70.3728 136.567 70.4261 136.311 70.5328C136.066 70.6394 135.842 70.7994 135.639 71.0128C135.437 71.2154 135.266 71.4661 135.127 71.7648C134.999 72.0634 134.914 72.4048 134.871 72.7888ZM143.244 74.1328C143.18 73.7168 143.19 73.3434 143.276 73.0128C143.372 72.6714 143.5 72.3621 143.66 72.0848C143.82 71.7968 144.001 71.5301 144.204 71.2848C144.417 71.0394 144.614 70.7994 144.796 70.5648C144.977 70.3194 145.126 70.0741 145.244 69.8288C145.372 69.5834 145.436 69.3168 145.436 69.0288C145.436 68.6021 145.302 68.2394 145.036 67.9408C144.78 67.6314 144.396 67.4768 143.884 67.4768C143.532 67.4768 143.196 67.5621 142.876 67.7328C142.566 67.8928 142.289 68.1168 142.044 68.4048L141.292 67.7168C141.633 67.3328 142.028 67.0181 142.476 66.7728C142.934 66.5168 143.457 66.3888 144.044 66.3888C144.854 66.3888 145.5 66.6181 145.98 67.0768C146.47 67.5248 146.716 68.1488 146.716 68.9488C146.716 69.3008 146.652 69.6208 146.524 69.9088C146.396 70.1968 146.236 70.4688 146.044 70.7248C145.862 70.9808 145.665 71.2368 145.452 71.4928C145.249 71.7381 145.057 71.9941 144.876 72.2608C144.705 72.5274 144.572 72.8154 144.476 73.1248C144.38 73.4234 144.353 73.7594 144.396 74.1328H143.244ZM143.852 77.4928C143.585 77.4928 143.361 77.4021 143.18 77.2208C142.998 77.0288 142.908 76.7888 142.908 76.5008C142.908 76.1914 142.998 75.9461 143.18 75.7648C143.361 75.5728 143.585 75.4768 143.852 75.4768C144.118 75.4768 144.342 75.5728 144.524 75.7648C144.716 75.9461 144.812 76.1914 144.812 76.5008C144.812 76.7888 144.716 77.0288 144.524 77.2208C144.342 77.4021 144.118 77.4928 143.852 77.4928Z" fill="black"/>
<path d="M179.107 36.4928C177.795 36.4928 176.83 35.9328 176.211 34.8128L177.171 34.1408C177.406 34.5568 177.672 34.8608 177.971 35.0528C178.27 35.2341 178.606 35.3248 178.979 35.3248C179.544 35.3248 179.966 35.1541 180.243 34.8128C180.52 34.4608 180.659 33.8848 180.659 33.0848V25.8048H182.003V33.2128C182.003 33.6608 181.944 34.0874 181.827 34.4928C181.72 34.8874 181.55 35.2341 181.315 35.5328C181.091 35.8314 180.792 36.0661 180.419 36.2368C180.056 36.4074 179.619 36.4928 179.107 36.4928ZM186.506 36.4928C185.856 36.4928 185.312 36.3008 184.874 35.9168C184.448 35.5328 184.234 34.9888 184.234 34.2848C184.234 33.4314 184.613 32.7808 185.37 32.3328C186.128 31.8741 187.338 31.5541 189.002 31.3728C189.002 31.1274 188.976 30.8874 188.922 30.6528C188.88 30.4181 188.8 30.2101 188.682 30.0288C188.565 29.8474 188.4 29.7034 188.186 29.5968C187.984 29.4794 187.722 29.4208 187.402 29.4208C186.954 29.4208 186.533 29.5061 186.138 29.6768C185.744 29.8474 185.392 30.0394 185.082 30.2528L184.57 29.3408C184.933 29.1061 185.376 28.8821 185.898 28.6688C186.421 28.4448 186.997 28.3328 187.626 28.3328C188.576 28.3328 189.264 28.6261 189.69 29.2128C190.117 29.7888 190.33 30.5621 190.33 31.5328V36.3008H189.242L189.13 35.3728H189.082C188.709 35.6821 188.309 35.9488 187.882 36.1728C187.456 36.3861 186.997 36.4928 186.506 36.4928ZM186.89 35.4368C187.264 35.4368 187.616 35.3514 187.946 35.1808C188.277 34.9994 188.629 34.7381 189.002 34.3968V32.2368C188.352 32.3221 187.802 32.4234 187.354 32.5408C186.917 32.6581 186.56 32.7968 186.282 32.9568C186.016 33.1168 185.818 33.3034 185.69 33.5168C185.573 33.7194 185.514 33.9434 185.514 34.1888C185.514 34.6368 185.648 34.9568 185.914 35.1488C186.181 35.3408 186.506 35.4368 186.89 35.4368ZM193.321 33.1328L193.145 27.0848L193.113 25.5808H194.441L194.409 27.0848L194.233 33.1328H193.321ZM193.785 36.4928C193.518 36.4928 193.289 36.4021 193.097 36.2208C192.916 36.0288 192.825 35.7888 192.825 35.5008C192.825 35.1914 192.916 34.9461 193.097 34.7648C193.289 34.5728 193.518 34.4768 193.785 34.4768C194.041 34.4768 194.26 34.5728 194.441 34.7648C194.633 34.9461 194.729 35.1914 194.729 35.5008C194.729 35.7888 194.633 36.0288 194.441 36.2208C194.26 36.4021 194.041 36.4928 193.785 36.4928ZM200.733 36.3008V25.8048H202.061V30.2048H206.941V25.8048H208.285V36.3008H206.941V31.3568H202.061V36.3008H200.733ZM212.722 36.3008L209.922 28.5248H211.282L212.754 32.9408C212.872 33.3248 212.989 33.7088 213.106 34.0928C213.234 34.4768 213.357 34.8554 213.474 35.2288H213.538C213.656 34.8554 213.773 34.4768 213.89 34.0928C214.008 33.7088 214.125 33.3248 214.242 32.9408L215.714 28.5248H217.01L214.258 36.3008H212.722ZM219.991 36.4928C219.34 36.4928 218.796 36.3008 218.359 35.9168C217.932 35.5328 217.719 34.9888 217.719 34.2848C217.719 33.4314 218.097 32.7808 218.855 32.3328C219.612 31.8741 220.823 31.5541 222.487 31.3728C222.487 31.1274 222.46 30.8874 222.407 30.6528C222.364 30.4181 222.284 30.2101 222.167 30.0288C222.049 29.8474 221.884 29.7034 221.671 29.5968C221.468 29.4794 221.207 29.4208 220.887 29.4208C220.439 29.4208 220.017 29.5061 219.623 29.6768C219.228 29.8474 218.876 30.0394 218.567 30.2528L218.055 29.3408C218.417 29.1061 218.86 28.8821 219.383 28.6688C219.905 28.4448 220.481 28.3328 221.111 28.3328C222.06 28.3328 222.748 28.6261 223.175 29.2128C223.601 29.7888 223.815 30.5621 223.815 31.5328V36.3008H222.727L222.615 35.3728H222.567C222.193 35.6821 221.793 35.9488 221.367 36.1728C220.94 36.3861 220.481 36.4928 219.991 36.4928ZM220.375 35.4368C220.748 35.4368 221.1 35.3514 221.431 35.1808C221.761 34.9994 222.113 34.7381 222.487 34.3968V32.2368C221.836 32.3221 221.287 32.4234 220.839 32.5408C220.401 32.6581 220.044 32.7968 219.767 32.9568C219.5 33.1168 219.303 33.3034 219.175 33.5168C219.057 33.7194 218.999 33.9434 218.999 34.1888C218.999 34.6368 219.132 34.9568 219.399 35.1488C219.665 35.3408 219.991 35.4368 220.375 35.4368ZM229.464 36.3008V24.9088H230.76V32.6208H230.808L234.12 28.5248H235.576L232.968 31.6448L235.928 36.3008H234.488L232.216 32.5568L230.76 34.2528V36.3008H229.464ZM239.022 36.4928C238.371 36.4928 237.827 36.3008 237.39 35.9168C236.963 35.5328 236.75 34.9888 236.75 34.2848C236.75 33.4314 237.129 32.7808 237.886 32.3328C238.643 31.8741 239.854 31.5541 241.518 31.3728C241.518 31.1274 241.491 30.8874 241.438 30.6528C241.395 30.4181 241.315 30.2101 241.198 30.0288C241.081 29.8474 240.915 29.7034 240.702 29.5968C240.499 29.4794 240.238 29.4208 239.918 29.4208C239.47 29.4208 239.049 29.5061 238.654 29.6768C238.259 29.8474 237.907 30.0394 237.598 30.2528L237.086 29.3408C237.449 29.1061 237.891 28.8821 238.414 28.6688C238.937 28.4448 239.513 28.3328 240.142 28.3328C241.091 28.3328 241.779 28.6261 242.206 29.2128C242.633 29.7888 242.846 30.5621 242.846 31.5328V36.3008H241.758L241.646 35.3728H241.598C241.225 35.6821 240.825 35.9488 240.398 36.1728C239.971 36.3861 239.513 36.4928 239.022 36.4928ZM239.406 35.4368C239.779 35.4368 240.131 35.3514 240.462 35.1808C240.793 34.9994 241.145 34.7381 241.518 34.3968V32.2368C240.867 32.3221 240.318 32.4234 239.87 32.5408C239.433 32.6581 239.075 32.7968 238.798 32.9568C238.531 33.1168 238.334 33.3034 238.206 33.5168C238.089 33.7194 238.03 33.9434 238.03 34.1888C238.03 34.6368 238.163 34.9568 238.43 35.1488C238.697 35.3408 239.022 35.4368 239.406 35.4368ZM245.292 36.3008V28.5248H246.38L246.492 29.6448H246.54C246.914 29.2714 247.303 28.9621 247.708 28.7168C248.124 28.4608 248.604 28.3328 249.148 28.3328C249.97 28.3328 250.567 28.5888 250.94 29.1008C251.324 29.6128 251.516 30.3701 251.516 31.3728V36.3008H250.204V31.5488C250.204 30.8128 250.087 30.2848 249.852 29.9648C249.618 29.6341 249.244 29.4688 248.732 29.4688C248.327 29.4688 247.97 29.5701 247.66 29.7728C247.351 29.9754 246.999 30.2741 246.604 30.6688V36.3008H245.292ZM256.446 39.7728C256.2 39.7728 255.982 39.7514 255.79 39.7088C255.598 39.6661 255.432 39.6181 255.294 39.5648L255.566 38.5728C255.662 38.6048 255.774 38.6314 255.902 38.6528C256.03 38.6848 256.163 38.7008 256.302 38.7008C256.686 38.7008 256.942 38.5674 257.07 38.3008C257.198 38.0341 257.262 37.6608 257.262 37.1808V28.5248H258.574V37.1808C258.574 37.9701 258.414 38.5994 258.094 39.0688C257.774 39.5381 257.224 39.7728 256.446 39.7728ZM257.934 26.9248C257.678 26.9248 257.459 26.8448 257.278 26.6848C257.107 26.5248 257.022 26.3221 257.022 26.0768C257.022 25.8208 257.107 25.6181 257.278 25.4688C257.459 25.3088 257.678 25.2288 257.934 25.2288C258.179 25.2288 258.387 25.3088 258.558 25.4688C258.739 25.6181 258.83 25.8208 258.83 26.0768C258.83 26.3221 258.739 26.5248 258.558 26.6848C258.387 26.8448 258.179 26.9248 257.934 26.9248ZM264.351 36.4928C263.828 36.4928 263.337 36.4021 262.879 36.2208C262.431 36.0288 262.036 35.7621 261.695 35.4208C261.364 35.0688 261.103 34.6421 260.911 34.1408C260.719 33.6394 260.623 33.0688 260.623 32.4288C260.623 31.7888 260.719 31.2181 260.911 30.7168C261.113 30.2048 261.375 29.7728 261.695 29.4208C262.025 29.0688 262.399 28.8021 262.815 28.6208C263.231 28.4288 263.663 28.3328 264.111 28.3328C264.601 28.3328 265.039 28.4181 265.423 28.5888C265.817 28.7594 266.143 29.0048 266.399 29.3248C266.665 29.6448 266.868 30.0288 267.007 30.4768C267.145 30.9248 267.215 31.4261 267.215 31.9808C267.215 32.1194 267.209 32.2581 267.199 32.3968C267.199 32.5248 267.188 32.6368 267.167 32.7328H261.919C261.972 33.5648 262.228 34.2261 262.687 34.7168C263.156 35.1968 263.764 35.4368 264.511 35.4368C264.884 35.4368 265.225 35.3834 265.535 35.2768C265.855 35.1594 266.159 35.0101 266.447 34.8288L266.911 35.6928C266.569 35.9061 266.191 36.0928 265.775 36.2528C265.359 36.4128 264.884 36.4928 264.351 36.4928ZM261.903 31.7888H266.063C266.063 30.9994 265.892 30.4021 265.551 29.9968C265.22 29.5808 264.751 29.3728 264.143 29.3728C263.865 29.3728 263.599 29.4261 263.343 29.5328C263.097 29.6394 262.873 29.7994 262.671 30.0128C262.468 30.2154 262.297 30.4661 262.159 30.7648C262.031 31.0634 261.945 31.4048 261.903 31.7888ZM271.604 39.8848C271.124 39.8848 270.687 39.8368 270.292 39.7408C269.897 39.6554 269.556 39.5221 269.268 39.3408C268.991 39.1594 268.772 38.9408 268.612 38.6848C268.463 38.4288 268.388 38.1301 268.388 37.7888C268.388 37.4581 268.489 37.1434 268.692 36.8448C268.895 36.5461 269.172 36.2741 269.524 36.0288V35.9648C269.332 35.8474 269.167 35.6874 269.028 35.4848C268.9 35.2714 268.836 35.0101 268.836 34.7008C268.836 34.3701 268.927 34.0821 269.108 33.8368C269.289 33.5914 269.481 33.3994 269.684 33.2608V33.1968C269.428 32.9834 269.193 32.7008 268.98 32.3488C268.777 31.9861 268.676 31.5701 268.676 31.1008C268.676 30.6741 268.751 30.2901 268.9 29.9488C269.06 29.6074 269.273 29.3194 269.54 29.0848C269.807 28.8394 270.116 28.6528 270.468 28.5248C270.831 28.3968 271.209 28.3328 271.604 28.3328C271.817 28.3328 272.015 28.3541 272.196 28.3968C272.388 28.4288 272.559 28.4714 272.708 28.5248H275.412V29.5328H273.812C273.993 29.7141 274.143 29.9434 274.26 30.2208C274.388 30.4981 274.452 30.8021 274.452 31.1328C274.452 31.5488 274.377 31.9274 274.228 32.2688C274.079 32.5994 273.876 32.8821 273.62 33.1168C273.364 33.3408 273.06 33.5168 272.708 33.6448C272.367 33.7728 271.999 33.8368 271.604 33.8368C271.412 33.8368 271.215 33.8154 271.012 33.7728C270.809 33.7194 270.617 33.6501 270.436 33.5648C270.297 33.6821 270.18 33.8154 270.084 33.9648C269.988 34.1034 269.94 34.2794 269.94 34.4928C269.94 34.7381 270.036 34.9408 270.228 35.1008C270.42 35.2608 270.783 35.3408 271.316 35.3408H272.82C273.727 35.3408 274.404 35.4901 274.852 35.7888C275.311 36.0768 275.54 36.5461 275.54 37.1968C275.54 37.5594 275.449 37.9008 275.268 38.2208C275.087 38.5514 274.825 38.8394 274.484 39.0848C274.143 39.3301 273.727 39.5221 273.236 39.6608C272.756 39.8101 272.212 39.8848 271.604 39.8848ZM271.604 32.9568C271.828 32.9568 272.036 32.9141 272.228 32.8288C272.431 32.7434 272.607 32.6208 272.756 32.4608C272.916 32.3008 273.039 32.1088 273.124 31.8848C273.209 31.6501 273.252 31.3888 273.252 31.1008C273.252 30.5248 273.092 30.0821 272.772 29.7728C272.452 29.4528 272.063 29.2928 271.604 29.2928C271.145 29.2928 270.756 29.4528 270.436 29.7728C270.116 30.0821 269.956 30.5248 269.956 31.1008C269.956 31.3888 269.999 31.6501 270.084 31.8848C270.169 32.1088 270.287 32.3008 270.436 32.4608C270.596 32.6208 270.772 32.7434 270.964 32.8288C271.167 32.9141 271.38 32.9568 271.604 32.9568ZM271.796 38.9728C272.169 38.9728 272.505 38.9248 272.804 38.8288C273.113 38.7434 273.375 38.6261 273.588 38.4768C273.801 38.3381 273.967 38.1728 274.084 37.9808C274.201 37.7888 274.26 37.5914 274.26 37.3888C274.26 37.0261 274.127 36.7754 273.86 36.6368C273.593 36.4981 273.204 36.4288 272.692 36.4288H271.348C271.199 36.4288 271.033 36.4181 270.852 36.3968C270.681 36.3861 270.511 36.3541 270.34 36.3008C270.063 36.5034 269.86 36.7168 269.732 36.9408C269.604 37.1648 269.54 37.3888 269.54 37.6128C269.54 38.0288 269.737 38.3594 270.132 38.6048C270.537 38.8501 271.092 38.9728 271.796 38.9728ZM180.467 58.4928C180.104 58.4928 179.726 58.4074 179.331 58.2368C178.947 58.0554 178.584 57.8101 178.243 57.5008H178.195L178.083 58.3008H177.027V46.9088H178.339V50.0128L178.307 51.4208C178.659 51.1114 179.043 50.8554 179.459 50.6528C179.875 50.4394 180.302 50.3328 180.739 50.3328C181.24 50.3328 181.683 50.4288 182.067 50.6208C182.451 50.8021 182.771 51.0688 183.027 51.4208C183.294 51.7621 183.491 52.1781 183.619 52.6688C183.758 53.1488 183.827 53.6874 183.827 54.2848C183.827 54.9461 183.736 55.5381 183.555 56.0608C183.374 56.5834 183.128 57.0261 182.819 57.3888C182.51 57.7514 182.152 58.0288 181.747 58.2208C181.342 58.4021 180.915 58.4928 180.467 58.4928ZM180.243 57.3888C180.563 57.3888 180.856 57.3194 181.123 57.1808C181.4 57.0314 181.635 56.8288 181.827 56.5728C182.03 56.3061 182.184 55.9808 182.291 55.5968C182.408 55.2128 182.467 54.7808 182.467 54.3008C182.467 53.8741 182.43 53.4848 182.355 53.1328C182.28 52.7808 182.158 52.4821 181.987 52.2368C181.827 51.9808 181.614 51.7834 181.347 51.6448C181.091 51.5061 180.782 51.4368 180.419 51.4368C179.79 51.4368 179.096 51.7888 178.339 52.4928V56.5728C178.68 56.8714 179.016 57.0848 179.347 57.2128C179.688 57.3301 179.987 57.3888 180.243 57.3888ZM185.871 58.3008V50.5248H187.183V58.3008H185.871ZM186.543 48.9248C186.287 48.9248 186.068 48.8448 185.887 48.6848C185.716 48.5248 185.631 48.3221 185.631 48.0768C185.631 47.8208 185.716 47.6181 185.887 47.4688C186.068 47.3088 186.287 47.2288 186.543 47.2288C186.799 47.2288 187.012 47.3088 187.183 47.4688C187.364 47.6181 187.455 47.8208 187.455 48.0768C187.455 48.3221 187.364 48.5248 187.183 48.6848C187.012 48.8448 186.799 48.9248 186.543 48.9248ZM192.464 58.4928C191.483 58.4928 190.699 58.1408 190.112 57.4368C189.536 56.7328 189.248 55.7301 189.248 54.4288C189.248 53.7994 189.339 53.2341 189.52 52.7328C189.712 52.2208 189.963 51.7888 190.272 51.4368C190.581 51.0848 190.939 50.8128 191.344 50.6208C191.749 50.4288 192.176 50.3328 192.624 50.3328C193.072 50.3328 193.461 50.4128 193.792 50.5728C194.123 50.7328 194.459 50.9514 194.8 51.2288L194.736 49.9008V46.9088H196.064V58.3008H194.976L194.864 57.3888H194.816C194.507 57.6874 194.149 57.9488 193.744 58.1728C193.349 58.3861 192.923 58.4928 192.464 58.4928ZM192.752 57.3888C193.115 57.3888 193.456 57.3034 193.776 57.1328C194.096 56.9514 194.416 56.6794 194.736 56.3168V52.2528C194.405 51.9541 194.085 51.7461 193.776 51.6288C193.477 51.5008 193.168 51.4368 192.848 51.4368C192.539 51.4368 192.245 51.5114 191.968 51.6608C191.701 51.7994 191.467 52.0021 191.264 52.2688C191.061 52.5248 190.901 52.8341 190.784 53.1968C190.667 53.5594 190.608 53.9648 190.608 54.4128C190.608 55.3514 190.795 56.0821 191.168 56.6048C191.541 57.1274 192.069 57.3888 192.752 57.3888ZM198.683 58.3008V50.5248H199.771L199.883 51.9328H199.931C200.198 51.4421 200.518 51.0528 200.891 50.7648C201.275 50.4768 201.691 50.3328 202.139 50.3328C202.448 50.3328 202.726 50.3861 202.971 50.4928L202.715 51.6448C202.587 51.6021 202.47 51.5701 202.363 51.5488C202.256 51.5274 202.123 51.5168 201.963 51.5168C201.632 51.5168 201.286 51.6501 200.923 51.9168C200.571 52.1834 200.262 52.6474 199.995 53.3088V58.3008H198.683ZM205.631 58.4928C204.981 58.4928 204.437 58.3008 203.999 57.9168C203.573 57.5328 203.359 56.9888 203.359 56.2848C203.359 55.4314 203.738 54.7808 204.495 54.3328C205.253 53.8741 206.463 53.5541 208.127 53.3728C208.127 53.1274 208.101 52.8874 208.047 52.6528C208.005 52.4181 207.925 52.2101 207.807 52.0288C207.69 51.8474 207.525 51.7034 207.311 51.5968C207.109 51.4794 206.847 51.4208 206.527 51.4208C206.079 51.4208 205.658 51.5061 205.263 51.6768C204.869 51.8474 204.517 52.0394 204.207 52.2528L203.695 51.3408C204.058 51.1061 204.501 50.8821 205.023 50.6688C205.546 50.4448 206.122 50.3328 206.751 50.3328C207.701 50.3328 208.389 50.6261 208.815 51.2128C209.242 51.7888 209.455 52.5621 209.455 53.5328V58.3008H208.367L208.255 57.3728H208.207C207.834 57.6821 207.434 57.9488 207.007 58.1728C206.581 58.3861 206.122 58.4928 205.631 58.4928ZM206.015 57.4368C206.389 57.4368 206.741 57.3514 207.071 57.1808C207.402 56.9994 207.754 56.7381 208.127 56.3968V54.2368C207.477 54.3221 206.927 54.4234 206.479 54.5408C206.042 54.6581 205.685 54.7968 205.407 54.9568C205.141 55.1168 204.943 55.3034 204.815 55.5168C204.698 55.7194 204.639 55.9434 204.639 56.1888C204.639 56.6368 204.773 56.9568 205.039 57.1488C205.306 57.3408 205.631 57.4368 206.015 57.4368ZM215.105 58.3008V50.5248H216.193L216.305 51.6448H216.353C216.694 51.2714 217.062 50.9621 217.457 50.7168C217.862 50.4608 218.3 50.3328 218.769 50.3328C219.366 50.3328 219.83 50.4661 220.161 50.7328C220.502 50.9888 220.753 51.3514 220.913 51.8208C221.318 51.3728 221.724 51.0154 222.129 50.7488C222.545 50.4714 222.993 50.3328 223.473 50.3328C224.273 50.3328 224.865 50.5888 225.249 51.1008C225.644 51.6128 225.841 52.3701 225.841 53.3728V58.3008H224.529V53.5488C224.529 52.8128 224.412 52.2848 224.177 51.9648C223.942 51.6341 223.58 51.4688 223.089 51.4688C222.502 51.4688 221.852 51.8688 221.137 52.6688V58.3008H219.825V53.5488C219.825 52.8128 219.708 52.2848 219.473 51.9648C219.238 51.6341 218.87 51.4688 218.369 51.4688C217.782 51.4688 217.132 51.8688 216.417 52.6688V58.3008H215.105ZM231.523 58.4928C231 58.4928 230.509 58.4021 230.051 58.2208C229.603 58.0288 229.208 57.7621 228.867 57.4208C228.536 57.0688 228.275 56.6421 228.083 56.1408C227.891 55.6394 227.795 55.0688 227.795 54.4288C227.795 53.7888 227.891 53.2181 228.083 52.7168C228.285 52.2048 228.547 51.7728 228.867 51.4208C229.197 51.0688 229.571 50.8021 229.987 50.6208C230.403 50.4288 230.835 50.3328 231.283 50.3328C231.773 50.3328 232.211 50.4181 232.595 50.5888C232.989 50.7594 233.315 51.0048 233.571 51.3248C233.837 51.6448 234.04 52.0288 234.179 52.4768C234.317 52.9248 234.387 53.4261 234.387 53.9808C234.387 54.1194 234.381 54.2581 234.371 54.3968C234.371 54.5248 234.36 54.6368 234.339 54.7328H229.091C229.144 55.5648 229.4 56.2261 229.859 56.7168C230.328 57.1968 230.936 57.4368 231.683 57.4368C232.056 57.4368 232.397 57.3834 232.707 57.2768C233.027 57.1594 233.331 57.0101 233.619 56.8288L234.083 57.6928C233.741 57.9061 233.363 58.0928 232.947 58.2528C232.531 58.4128 232.056 58.4928 231.523 58.4928ZM229.075 53.7888H233.235C233.235 52.9994 233.064 52.4021 232.723 51.9968C232.392 51.5808 231.923 51.3728 231.315 51.3728C231.037 51.3728 230.771 51.4261 230.515 51.5328C230.269 51.6394 230.045 51.7994 229.843 52.0128C229.64 52.2154 229.469 52.4661 229.331 52.7648C229.203 53.0634 229.117 53.4048 229.075 53.7888ZM238.964 58.4928C237.983 58.4928 237.199 58.1408 236.612 57.4368C236.036 56.7328 235.748 55.7301 235.748 54.4288C235.748 53.7994 235.839 53.2341 236.02 52.7328C236.212 52.2208 236.463 51.7888 236.772 51.4368C237.081 51.0848 237.439 50.8128 237.844 50.6208C238.249 50.4288 238.676 50.3328 239.124 50.3328C239.572 50.3328 239.961 50.4128 240.292 50.5728C240.623 50.7328 240.959 50.9514 241.3 51.2288L241.236 49.9008V46.9088H242.564V58.3008H241.476L241.364 57.3888H241.316C241.007 57.6874 240.649 57.9488 240.244 58.1728C239.849 58.3861 239.423 58.4928 238.964 58.4928ZM239.252 57.3888C239.615 57.3888 239.956 57.3034 240.276 57.1328C240.596 56.9514 240.916 56.6794 241.236 56.3168V52.2528C240.905 51.9541 240.585 51.7461 240.276 51.6288C239.977 51.5008 239.668 51.4368 239.348 51.4368C239.039 51.4368 238.745 51.5114 238.468 51.6608C238.201 51.7994 237.967 52.0021 237.764 52.2688C237.561 52.5248 237.401 52.8341 237.284 53.1968C237.167 53.5594 237.108 53.9648 237.108 54.4128C237.108 55.3514 237.295 56.0821 237.668 56.6048C238.041 57.1274 238.569 57.3888 239.252 57.3888ZM246.431 55.1328C246.367 54.7168 246.378 54.3434 246.463 54.0128C246.559 53.6714 246.687 53.3621 246.847 53.0848C247.007 52.7968 247.188 52.5301 247.391 52.2848C247.604 52.0394 247.802 51.7994 247.983 51.5648C248.164 51.3194 248.314 51.0741 248.431 50.8288C248.559 50.5834 248.623 50.3168 248.623 50.0288C248.623 49.6021 248.49 49.2394 248.223 48.9408C247.967 48.6314 247.583 48.4768 247.071 48.4768C246.719 48.4768 246.383 48.5621 246.063 48.7328C245.754 48.8928 245.476 49.1168 245.231 49.4048L244.479 48.7168C244.82 48.3328 245.215 48.0181 245.663 47.7728C246.122 47.5168 246.644 47.3888 247.231 47.3888C248.042 47.3888 248.687 47.6181 249.167 48.0768C249.658 48.5248 249.903 49.1488 249.903 49.9488C249.903 50.3008 249.839 50.6208 249.711 50.9088C249.583 51.1968 249.423 51.4688 249.231 51.7248C249.05 51.9808 248.852 52.2368 248.639 52.4928C248.436 52.7381 248.244 52.9941 248.063 53.2608C247.892 53.5274 247.759 53.8154 247.663 54.1248C247.567 54.4234 247.54 54.7594 247.583 55.1328H246.431ZM247.039 58.4928C246.772 58.4928 246.548 58.4021 246.367 58.2208C246.186 58.0288 246.095 57.7888 246.095 57.5008C246.095 57.1914 246.186 56.9461 246.367 56.7648C246.548 56.5728 246.772 56.4768 247.039 56.4768C247.306 56.4768 247.53 56.5728 247.711 56.7648C247.903 56.9461 247.999 57.1914 247.999 57.5008C247.999 57.7888 247.903 58.0288 247.711 58.2208C247.53 58.4021 247.306 58.4928 247.039 58.4928Z" fill="black"/>
<path fill-rule="evenodd" clip-rule="evenodd" d="M56.5386 144.995C56.5386 155.45 52.5158 161.435 47.8103 163.924V165.351L44.339 185.301H31.7439L28.7918 165.351V162.499C28.28 162.123 27.7858 161.698 27.3074 161.216C25.1262 159.017 23.7248 156.277 22.8624 153.096C21.636 152.749 20.0748 151.815 18.8915 149.301C17.9503 147.301 17.9503 146.301 17.9503 145.301C17.9503 144.301 18.6504 142.932 19.8327 142.301C20.1081 142.154 20.4083 142.021 20.707 141.904C20.7069 141.873 20.7069 141.842 20.7069 141.811L20.7067 141.325C20.7051 136.165 20.7035 131.395 22.4375 127.489C25.1772 121.318 30.962 117.301 37.9169 117.301C46.7354 117.301 52.0785 122.747 54.6527 130.577C56.0569 134.849 56.5386 138.748 56.5386 144.995Z" fill="#F1F1F1"/>
<path fill-rule="evenodd" clip-rule="evenodd" d="M56.4245 142.329C56.4245 142.265 56.0992 138.113 55.5997 136.301C54.6598 132.893 52.78 131.189 52.78 131.301C52.78 131.301 53.6482 136.709 53.0349 135.828C49.5627 130.853 40.685 135.254 37.3487 128.834C36.9291 132.368 41.1388 133.434 41.1388 133.434C37.7827 134.124 34.8751 132.657 34.0872 130.915C33.8279 132.335 33.7243 133.278 34.8904 134.25C30.7654 133.402 31.5992 130.319 31.5992 130.319C28.3426 130.795 25.2398 135.517 24.9114 139.663C24.583 143.809 22.7032 145.301 22.7032 145.301C21.0386 143.514 18.9436 143.301 18.9436 143.301C18.9436 143.301 18.0037 140.301 18.0037 138.301C18.0037 133.434 17.6124 129.948 18.9436 125.794C21.7633 116.996 29.2827 111.343 36.8868 111.301C50.9002 111.225 57.4795 121.276 57.4795 135.301C57.4795 139.301 56.4245 142.43 56.4245 142.329Z" fill="#D47B00"/>
<path d="M39.6631 153.802C39.6879 153.866 39.7511 153.996 39.8581 154.17C40.0411 154.467 40.2786 154.766 40.5754 155.045C41.6212 156.028 43.1079 156.52 45.1646 156.251C46.1859 156.118 46.9066 155.639 47.4006 154.909C47.6102 154.6 47.7642 154.265 47.8697 153.929C47.9322 153.731 47.9638 153.581 47.9739 153.506C48.0097 153.238 48.2694 153.048 48.5541 153.082C48.8387 153.116 49.0405 153.36 49.0047 153.627C48.9423 154.094 48.7323 154.761 48.277 155.434C47.6275 156.393 46.6486 157.043 45.3078 157.218C42.9227 157.531 41.1131 156.931 39.841 155.736C39.2143 155.147 38.8503 154.555 38.6878 154.139C38.589 153.885 38.7272 153.605 38.9965 153.512C39.2659 153.419 39.5643 153.549 39.6631 153.802Z" fill="#262626"/>
<path fill-rule="evenodd" clip-rule="evenodd" d="M51.003 143.533C49.8314 143.924 48.9846 141.727 49.0095 140.158C49.0139 139.861 49.1211 138.488 49.8227 138.327C50.5233 138.165 50.99 138.794 51.0604 138.906C51.9028 140.235 52.284 143.103 51.003 143.533Z" fill="#262626"/>
<path fill-rule="evenodd" clip-rule="evenodd" d="M37.7863 140.003C37.8392 139.711 38.1708 138.377 38.9281 138.306C39.6864 138.235 40.0728 138.91 40.1275 139.028C40.7936 140.437 40.733 143.298 39.327 143.561C38.042 143.801 37.5095 141.538 37.7863 140.003Z" fill="#262626"/>
<path d="M47.2734 144.429C47.3848 144.54 47.5028 144.634 47.6264 144.714C48.1075 145.024 48.607 145.081 49.066 144.998C49.133 144.986 49.1881 144.972 49.1705 144.974C49.8867 144.864 50.3713 144.948 50.5489 145.188C51.2463 146.13 51.0232 147.128 49.8266 147.947C49.1977 148.377 48.3318 148.529 47.8734 148.306C47.6493 148.197 47.3871 148.308 47.2879 148.555C47.1887 148.801 47.29 149.09 47.5142 149.199C48.2718 149.567 49.4369 149.364 50.2957 148.776C51.9216 147.662 52.2937 145.999 51.2372 144.571C50.8035 143.986 50.0446 143.853 49.0477 144.007C48.9768 144.023 48.9518 144.029 48.9207 144.035C48.6489 144.084 48.352 144.05 48.0751 143.871C48.0032 143.825 47.9339 143.769 47.8673 143.703C47.6851 143.523 47.4044 143.539 47.2404 143.74C47.0764 143.94 47.0912 144.249 47.2734 144.429Z" fill="#262626"/>
<path fill-rule="evenodd" clip-rule="evenodd" d="M36.5631 109.359C45.1511 108.852 52.1253 111.552 56.033 121.969C56.033 121.969 57.2363 122.318 58.277 125.721C59.3176 129.124 58.3095 133.351 57.2688 132.747C56.2281 131.655 49.6282 128.905 37.8733 130.766C26.1173 132.627 18.7637 139.301 18.7637 139.301C17.723 139.301 16.7148 136.47 16.7148 132.747C16.7148 129.024 17.723 128.117 17.723 128.117C18.6027 117.282 23.549 112.151 30.7154 110.239C30.7433 108.781 31.8336 107.523 33.3229 107.327C34.7754 107.136 36.1209 108.017 36.5631 109.359Z" fill="#262626"/>
<path fill-rule="evenodd" clip-rule="evenodd" d="M28.7157 165.301C28.8235 168.561 38.7148 182.301 38.7148 182.301C38.7148 182.301 48.6062 168.561 48.714 165.301H48.7148C49.1299 165.301 55.0116 167.541 59.4848 172.034C62.9553 175.52 65.7148 180.759 65.7148 184.824V209.301H23.7148C17.0874 209.301 11.7148 203.928 11.7148 197.301V184.824C11.7148 180.751 14.5339 175.503 18.0686 172.013C22.6081 167.531 28.1997 165.301 28.7148 165.301H28.7157Z" fill="#99C4DD"/>
<path fill-rule="evenodd" clip-rule="evenodd" d="M38.7148 182.409L30.0318 164.301C29.1635 164.411 28.0151 164.803 26.7148 165.421C26.8155 167.166 27.7148 173.825 27.7148 173.825L28.6892 180.491L32.6977 176.682L38.7148 184.301L44.732 176.682L48.7405 180.491C48.7405 180.582 49.7148 173.825 49.7148 173.825C49.7148 173.825 50.6141 167.166 50.7148 165.421C49.4146 164.803 48.2662 164.411 47.3979 164.301L38.7148 182.409Z" fill="white"/>
</svg>
