<svg width="180" height="125" viewBox="0 0 180 125" fill="none" xmlns="http://www.w3.org/2000/svg">
<g clip-path="url(#clip0)">
<path d="M72.7 32.8102C43.14 -4.72982 7.94001 -6.67982 0.250013 50.8102C-7.47999 139.68 170.52 142.33 173.57 75.4102C174.21 57.3502 161.46 42.4102 147.98 40.2602C119.26 37.7902 102.02 61.3702 72.7 32.8102Z" fill="#FFD799"/>
<path d="M34.9199 108.63C46.8299 84.4596 57.9199 70.8496 86.7999 70.8496C115.68 70.8496 129.24 88.5196 138.1 114.8" stroke="black" stroke-width="4" stroke-miterlimit="10"/>
<path d="M86.8002 61.66C103.275 61.66 116.63 48.3047 116.63 31.83C116.63 15.3553 103.275 2 86.8002 2C70.3256 2 56.9702 15.3553 56.9702 31.83C56.9702 48.3047 70.3256 61.66 86.8002 61.66Z" stroke="black" stroke-width="4" stroke-miterlimit="10"/>
</g>
<defs>
<clipPath id="clip0">
<rect width="180" height="125" fill="white"/>
</clipPath>
</defs>
</svg>
